<svg width="36" height="36" viewBox="0 0 36 36" fill="none" xmlns="http://www.w3.org/2000/svg">
<rect width="36" height="36" rx="6" fill="white"/>
<path d="M23.3279 20.3843C23.0239 20.2403 21.5679 19.5203 21.2959 19.4083C21.0239 19.2963 20.8319 19.2643 20.6239 19.5683C20.4159 19.8723 19.8559 20.5283 19.6799 20.7363C19.5039 20.9443 19.3439 20.9603 19.0399 20.7363C18.1668 20.3859 17.3603 19.888 16.6559 19.2643C16.0183 18.664 15.4784 17.9675 15.0559 17.2003C14.8799 16.9123 15.0559 16.7523 15.1839 16.5923C15.3119 16.4324 15.4719 16.2564 15.6319 16.0804C15.7489 15.9281 15.8457 15.7614 15.9199 15.5844C15.9596 15.502 15.9802 15.4118 15.9802 15.3204C15.9802 15.2289 15.9596 15.1387 15.9199 15.0564C15.9199 14.9124 15.2479 13.4564 14.9919 12.8644C14.7359 12.2724 14.5119 12.3524 14.3359 12.3524H13.6959C13.3911 12.3643 13.1034 12.4966 12.8959 12.7204C12.5612 13.0398 12.296 13.425 12.117 13.8518C11.9381 14.2785 11.8492 14.7377 11.856 15.2004C11.9378 16.3363 12.3555 17.4223 13.0559 18.3203C14.3413 20.2298 16.0999 21.7734 18.1599 22.8003C18.8639 23.1043 19.4079 23.2803 19.8399 23.4243C20.4465 23.6077 21.0877 23.646 21.7119 23.5363C22.1264 23.4522 22.5193 23.2838 22.8661 23.0416C23.2129 22.7994 23.5062 22.4886 23.7279 22.1283C23.9124 21.6834 23.9732 21.1969 23.9039 20.7203C23.8239 20.6083 23.6319 20.5283 23.3279 20.3843Z" fill="black"/>
<path d="M26.3199 9.48839C25.2134 8.37141 23.8944 7.48732 22.4407 6.88826C20.987 6.28921 19.4281 5.98732 17.8559 6.00041C15.7732 6.01131 13.7298 6.56846 11.9298 7.61621C10.1298 8.66396 8.63617 10.1656 7.59813 11.9713C6.56009 13.7769 6.01397 15.8233 6.01429 17.906C6.01462 19.9888 6.56139 22.035 7.59999 23.8403L6 30.0003L12.304 28.4003C14.0467 29.3486 15.9999 29.8438 17.9839 29.8403H17.8559C20.2206 29.8557 22.5362 29.1665 24.5076 27.8605C26.479 26.5546 28.0168 24.6911 28.9248 22.5077C29.8328 20.3242 30.07 17.9199 29.6061 15.6011C29.1421 13.2824 27.9981 11.1543 26.3199 9.48839ZM17.8559 27.7923C16.0808 27.7937 14.3387 27.3125 12.816 26.4003L12.464 26.1923L8.71998 27.1683L9.71198 23.5203L9.48798 23.1523C8.21016 21.0944 7.73217 18.6391 8.1447 16.2522C8.55724 13.8653 9.8316 11.7128 11.726 10.2032C13.6204 8.69364 16.003 7.93195 18.4218 8.06266C20.8406 8.19338 23.1272 9.20742 24.8479 10.9124C25.7703 11.8274 26.5015 12.9169 26.9987 14.1173C27.4959 15.3177 27.7492 16.605 27.7439 17.9043C27.7396 20.5255 26.6965 23.0381 24.8431 24.8915C22.9896 26.7449 20.4771 27.788 17.8559 27.7923Z" fill="black"/>
</svg>
